<svg width="286" height="40" viewBox="0 0 286 40" fill="none" xmlns="http://www.w3.org/2000/svg">
<path d="M0 20C0 8.95431 8.9543 0 20 0H266C277.046 0 286 8.95431 286 20C286 31.0457 277.046 40 266 40H20C8.95431 40 0 31.0457 0 20Z" fill="#0A0A0A"/>
<path d="M110.44 14.8H112.36V19.488H113.48L117.544 14.8H119.72L115 20.128L119.88 26H117.544L113.48 20.992H112.36V26H110.44V14.8ZM123.718 26.176C123.6 26.176 123.483 26.1707 123.366 26.16C123.259 26.16 123.163 26.1547 123.078 26.144V24.432C123.163 24.4427 123.259 24.4533 123.366 24.464C123.483 24.4747 123.6 24.48 123.718 24.48C123.931 24.48 124.118 24.464 124.278 24.432C124.438 24.4 124.576 24.3413 124.694 24.256C124.811 24.1707 124.918 24.0533 125.014 23.904C125.11 23.7547 125.2 23.568 125.286 23.344L120.678 14.8H122.918L126.294 21.28L129.094 14.8H131.078L127.142 23.632C126.939 24.08 126.731 24.4693 126.518 24.8C126.315 25.12 126.08 25.3813 125.814 25.584C125.558 25.7867 125.259 25.936 124.918 26.032C124.576 26.128 124.176 26.176 123.718 26.176ZM132.753 14.8H141.873V26H139.953V16.464H134.673V26H132.753V14.8ZM144.753 14.8H146.673V22.96L152.177 14.8H154.033V26H152.113V17.84L146.609 26H144.753V14.8ZM159.549 16.464H155.789V14.8H165.229V16.464H161.469V26H159.549V16.464ZM166.987 14.8H168.907V19.024H171.067C171.814 19.024 172.464 19.1093 173.019 19.28C173.574 19.44 174.032 19.6747 174.395 19.984C174.758 20.2827 175.024 20.6507 175.195 21.088C175.376 21.5147 175.467 21.9893 175.467 22.512C175.467 23.0347 175.376 23.5147 175.195 23.952C175.024 24.3787 174.758 24.7467 174.395 25.056C174.032 25.3547 173.574 25.5893 173.019 25.76C172.464 25.92 171.814 26 171.067 26H166.987V14.8ZM170.907 24.336C171.408 24.336 171.83 24.2987 172.171 24.224C172.512 24.1387 172.784 24.0213 172.987 23.872C173.19 23.7227 173.334 23.536 173.419 23.312C173.504 23.0773 173.547 22.8107 173.547 22.512C173.547 22.2133 173.504 21.952 173.419 21.728C173.334 21.4933 173.19 21.3013 172.987 21.152C172.784 21.0027 172.512 20.8907 172.171 20.816C171.83 20.7307 171.408 20.688 170.907 20.688H168.907V24.336H170.907Z" fill="white"/>
</svg>
