<svg width="116" height="40" viewBox="0 0 116 40" fill="none" xmlns="http://www.w3.org/2000/svg">
<path d="M0 20C0 8.95431 8.95431 0 20 0H96C107.046 0 116 8.95431 116 20C116 31.0457 107.046 40 96 40H20C8.9543 40 0 31.0457 0 20Z" fill="#0A0A0A"/>
<path d="M25.44 14.8H27.36V19.488H28.48L32.544 14.8H34.72L30 20.128L34.88 26H32.544L28.48 20.992H27.36V26H25.44V14.8ZM38.7175 26.176C38.6002 26.176 38.4828 26.1707 38.3655 26.16C38.2588 26.16 38.1628 26.1547 38.0775 26.144V24.432C38.1628 24.4427 38.2588 24.4533 38.3655 24.464C38.4828 24.4747 38.6002 24.48 38.7175 24.48C38.9308 24.48 39.1175 24.464 39.2775 24.432C39.4375 24.4 39.5762 24.3413 39.6935 24.256C39.8108 24.1707 39.9175 24.0533 40.0135 23.904C40.1095 23.7547 40.2002 23.568 40.2855 23.344L35.6775 14.8H37.9175L41.2935 21.28L44.0935 14.8H46.0775L42.1415 23.632C41.9388 24.08 41.7308 24.4693 41.5175 24.8C41.3148 25.12 41.0802 25.3813 40.8135 25.584C40.5575 25.7867 40.2588 25.936 39.9175 26.032C39.5762 26.128 39.1762 26.176 38.7175 26.176ZM47.7525 14.8H56.8725V26H54.9525V16.464H49.6725V26H47.7525V14.8ZM59.7525 14.8H61.6725V22.96L67.1765 14.8H69.0325V26H67.1125V17.84L61.6085 26H59.7525V14.8ZM74.5488 16.464H70.7888V14.8H80.2288V16.464H76.4688V26H74.5488V16.464ZM81.9869 14.8H83.9069V19.024H86.0669C86.8135 19.024 87.4642 19.1093 88.0189 19.28C88.5735 19.44 89.0322 19.6747 89.3949 19.984C89.7575 20.2827 90.0242 20.6507 90.1949 21.088C90.3762 21.5147 90.4669 21.9893 90.4669 22.512C90.4669 23.0347 90.3762 23.5147 90.1949 23.952C90.0242 24.3787 89.7575 24.7467 89.3949 25.056C89.0322 25.3547 88.5735 25.5893 88.0189 25.76C87.4642 25.92 86.8135 26 86.0669 26H81.9869V14.8ZM85.9069 24.336C86.4082 24.336 86.8295 24.2987 87.1709 24.224C87.5122 24.1387 87.7842 24.0213 87.9869 23.872C88.1895 23.7227 88.3335 23.536 88.4189 23.312C88.5042 23.0773 88.5469 22.8107 88.5469 22.512C88.5469 22.2133 88.5042 21.952 88.4189 21.728C88.3335 21.4933 88.1895 21.3013 87.9869 21.152C87.7842 21.0027 87.5122 20.8907 87.1709 20.816C86.8295 20.7307 86.4082 20.688 85.9069 20.688H83.9069V24.336H85.9069Z" fill="white"/>
</svg>
